<svg version="1.1" id="Layer_1" xmlns="http://www.w3.org/2000/svg" xmlns:xlink="http://www.w3.org/1999/xlink" x="0px" y="0px"
	 width="100%" viewBox="0 0 3851 1503" enable-background="new 0 0 3851 1503" xml:space="preserve">
<path fill="#000000" opacity="1.000000" stroke="none" 
	d="
M2404.000000,1506.000000 
	C1602.666626,1506.000000 802.333313,1506.000000 2.000000,1506.000000 
	C2.000000,1004.666687 2.000000,503.333344 2.000000,2.000000 
	C1286.000000,2.000000 2570.000000,2.000000 3854.000000,2.000000 
	C3854.000000,503.333344 3854.000000,1004.666687 3854.000000,1506.000000 
	C3371.000000,1506.000000 2888.000000,1506.000000 2404.000000,1506.000000 
M2738.876221,441.089844 
	C2751.211426,465.032318 2763.495117,489.001617 2775.892334,512.911926 
	C2806.645752,572.225586 2837.446289,631.514648 2868.236572,690.809082 
	C2887.387695,727.689819 2906.616943,764.530334 2925.702148,801.445190 
	C2961.885986,871.433350 2997.977539,941.469299 3034.147217,1011.464783 
	C3038.988037,1020.832764 3044.059082,1030.081787 3048.760498,1038.892578 
	C3081.145020,1040.524170 3130.799072,1039.838501 3138.596924,1037.562866 
	C2970.756592,771.051941 2803.001953,504.677032 2635.066406,238.014709 
	C2623.096924,253.133530 2134.069824,1031.246704 2131.747559,1038.874268 
	C2162.388184,1038.874268 2192.904297,1038.874268 2223.700195,1038.874268 
	C2224.534180,1037.489380 2225.465088,1036.127930 2226.213623,1034.672974 
	C2238.381104,1011.027588 2250.516602,987.365723 2262.677002,963.716797 
	C2286.697754,917.001587 2310.737549,870.296143 2334.754639,823.579041 
	C2359.378906,775.680542 2384.007080,727.783997 2408.594238,679.866455 
	C2430.906982,636.380737 2453.123779,592.845642 2475.471191,549.377563 
	C2484.287109,532.230103 2493.340820,515.205078 2503.254883,498.850250 
	C2503.579590,500.012177 2503.904541,501.174103 2504.066162,503.752991 
	C2487.554199,537.486389 2471.038330,571.217834 2454.531738,604.953796 
	C2431.012451,653.022400 2407.515381,701.102112 2383.979248,749.162415 
	C2360.146729,797.827332 2336.302002,846.486145 2312.418213,895.125732 
	C2291.026367,938.689758 2269.555420,982.214844 2248.178223,1025.786011 
	C2246.195557,1029.827026 2244.638672,1034.076538 2242.767822,1038.504272 
	C2263.143799,1040.610107 3018.974609,1039.719116 3026.303467,1037.582886 
	C3025.650635,1036.062500 3025.080078,1034.561401 3024.378418,1033.124512 
	C3001.487793,986.230957 2978.592529,939.339783 2955.681396,892.456299 
	C2933.056152,846.157410 2910.445312,799.851257 2887.769531,753.577026 
	C2855.296387,687.310120 2822.737549,621.085327 2790.279541,554.811035 
	C2772.156982,517.807495 2754.164307,480.740295 2736.393066,442.621277 
	C2736.923096,441.750061 2737.453369,440.878845 2738.876221,441.089844 
M2177.450684,826.448303 
	C2207.186279,774.336914 2221.077148,717.798340 2223.546875,658.293030 
	C2224.980713,623.745483 2222.678223,589.322998 2216.230957,555.280273 
	C2210.208008,523.477478 2200.449707,492.808685 2185.775391,463.966217 
	C2166.910400,426.888123 2141.859863,394.503845 2110.696289,366.685852 
	C2069.111572,329.565765 2021.360474,303.534973 1968.763062,286.140320 
	C1909.321045,266.482025 1847.874023,258.231903 1785.539185,257.490295 
	C1714.231689,256.641937 1642.906128,257.287476 1571.588501,257.320190 
	C1569.081543,257.321350 1566.574829,257.710999 1563.996338,257.925537 
	C1563.996338,512.808716 1563.996338,766.970032 1563.996338,1022.089661 
	C1567.856201,1022.089661 1571.433838,1022.089661 1575.011353,1022.089661 
	C1634.998169,1022.089661 1694.985107,1022.015015 1754.971802,1022.118103 
	C1790.216797,1022.178650 1825.408447,1021.897339 1860.543701,1018.220642 
	C1894.657837,1014.650757 1928.194580,1008.642151 1960.867676,998.130432 
	C2000.746216,985.300476 2037.374756,966.002380 2071.451660,941.822632 
	C2114.562500,911.232788 2150.349609,873.807556 2177.450684,826.448303 
M1113.663940,501.000153 
	C1113.663940,472.836212 1113.663940,444.672302 1113.663940,415.861755 
	C1211.876343,415.861755 1308.739380,415.861755 1405.762695,415.861755 
	C1405.762695,362.732117 1405.762695,310.272614 1405.762695,257.674866 
	C1248.999756,257.674866 1092.807861,257.674866 936.143250,257.674866 
	C936.143250,512.497070 936.143250,766.939575 936.143250,1021.511230 
	C1094.745117,1021.511230 1252.869385,1021.511230 1411.226074,1021.511230 
	C1411.226074,968.080078 1411.226074,915.227295 1411.226074,861.302979 
	C1311.995483,861.302979 1213.195068,861.302979 1114.189697,861.302979 
	C1114.189697,810.410217 1114.189697,760.591736 1114.189697,709.783936 
	C1197.830933,709.783936 1280.951904,709.783936 1363.883789,709.783936 
	C1363.883789,657.231995 1363.883789,605.672607 1363.883789,553.021851 
	C1280.356812,553.021851 1197.272461,553.021851 1113.663940,553.021851 
	C1113.663940,535.621521 1113.663940,519.310852 1113.663940,501.000153 
M3473.242188,231.302216 
	C3471.243652,231.295227 3469.225098,231.470963 3467.249756,231.253525 
	C3441.994629,228.473602 3416.689697,229.502106 3391.623535,232.339508 
	C3338.962402,238.300568 3289.146240,253.783707 3242.636475,279.613495 
	C3207.143066,299.325104 3175.433105,323.898895 3147.830566,353.520966 
	C3119.573486,383.844696 3096.701172,417.909027 3079.165039,455.635162 
	C3054.893555,507.851746 3043.004883,562.904175 3040.473877,620.094910 
	C3039.387207,644.648621 3040.715576,669.194397 3043.546143,693.691956 
	C3048.849854,739.593140 3061.363770,783.327148 3081.454346,824.872375 
	C3103.417725,870.289795 3132.972656,910.011230 3170.561279,943.839111 
	C3203.727783,973.687500 3240.343750,998.048401 3281.552734,1015.176697 
	C3342.816162,1040.640381 3406.529541,1049.846680 3472.691895,1044.245972 
	C3533.191162,1039.124512 3589.858154,1022.306580 3642.514160,992.095337 
	C3650.516113,987.504211 3658.235596,982.421265 3665.083252,978.185730 
	C3667.328857,943.247986 3670.197266,909.850159 3671.422607,876.392212 
	C3672.651855,842.825439 3676.275146,809.330505 3676.179443,774.149475 
	C3673.629150,776.037170 3672.594971,776.730835 3671.639893,777.519958 
	C3639.218018,804.306885 3604.574951,827.585815 3565.861572,844.417114 
	C3514.555176,866.723267 3461.264160,877.284790 3405.589600,867.782532 
	C3320.123047,853.195557 3265.122070,802.357361 3238.002930,721.132141 
	C3225.356201,683.252197 3223.474609,643.892944 3227.532715,604.109253 
	C3231.757568,562.690308 3243.883301,524.314209 3267.702637,489.892548 
	C3294.250488,451.527588 3328.864502,423.579773 3373.478516,409.088257 
	C3403.148682,399.450928 3433.634033,396.296783 3464.882324,399.076508 
	C3486.216064,400.974274 3506.916016,405.071289 3526.976807,412.336945 
	C3567.311768,426.945190 3601.677734,450.981934 3632.848877,479.983978 
	C3639.289551,485.976471 3645.809570,491.883911 3652.980713,498.461426 
	C3653.362549,496.305969 3653.577637,495.440216 3653.661865,494.561920 
	C3655.904053,471.125763 3658.033936,447.678436 3660.385986,424.253326 
	C3664.221680,386.052460 3668.124023,347.857788 3672.207520,309.682892 
	C3672.772705,304.399384 3671.329346,301.024994 3666.820068,298.137909 
	C3645.237061,284.319336 3622.906006,271.985718 3599.296143,261.917236 
	C3559.538818,244.962387 3518.015381,235.406158 3473.242188,231.302216 
M803.662415,400.404236 
	C806.709595,368.155640 809.756714,335.907074 812.787842,303.828125 
	C786.718567,285.388550 759.421936,271.158752 730.649231,259.796936 
	C667.016479,234.669556 601.049927,226.846252 533.165894,233.875076 
	C482.016571,239.171158 433.821014,254.032623 388.390289,278.137054 
	C359.424774,293.505493 332.835327,312.231079 308.830353,334.452606 
	C270.574188,369.866486 240.416458,411.236816 218.597641,458.724457 
	C194.134796,511.966705 182.615509,568.095459 180.471863,626.318176 
	C179.972366,639.885010 181.250671,653.515076 181.653549,667.117737 
	C182.771133,704.852112 190.008820,741.505249 201.794739,777.244873 
	C224.155273,845.050842 262.064819,902.734314 315.756622,949.870544 
	C350.272797,980.172485 388.801910,1004.058105 431.734222,1020.563599 
	C487.138977,1041.864136 544.401245,1050.092896 603.731934,1046.312012 
	C646.211731,1043.604858 687.184753,1035.060669 726.907837,1020.105042 
	C754.675171,1009.650818 780.919067,996.246582 805.564697,978.952759 
	C809.418640,911.383606 813.270752,843.845703 817.124084,776.287842 
	C797.328674,790.324463 778.636597,804.675293 758.883850,817.376404 
	C702.885254,853.383667 642.257202,874.595947 574.724548,872.072388 
	C539.355469,870.750793 505.614288,862.938171 474.847534,844.954285 
	C423.789917,815.109802 391.308105,770.874695 375.688080,714.148865 
	C366.178040,679.612183 364.387909,644.452332 367.487183,608.781860 
	C369.953491,580.396667 376.065369,553.064575 387.775665,527.170471 
	C408.881287,480.501251 441.562012,444.373260 487.583435,421.194763 
	C525.470276,402.113190 566.137146,396.742706 607.858948,400.402832 
	C646.461670,403.789307 682.193481,416.730957 715.264526,437.049377 
	C742.330872,453.678558 766.493713,473.806427 788.559082,496.565216 
	C789.761780,497.805664 791.482239,498.544098 793.503540,499.872223 
	C795.847656,475.502106 798.030640,452.139618 800.373413,428.793121 
	C801.263428,419.924316 802.521301,411.092438 803.662415,400.404236 
M2167.616699,1140.478882 
	C2148.129395,1106.229126 2128.641846,1071.979370 2109.604736,1038.521118 
	C2104.407227,1037.577637 2101.669922,1038.541504 2098.806885,1041.840942 
	C2086.064697,1056.526001 2075.334961,1072.524170 2068.264648,1090.561523 
	C2061.398682,1108.077881 2055.899170,1126.130005 2049.544189,1144.692993 
	C2048.073486,1145.031616 2045.290283,1145.672485 2042.500244,1146.314941 
	C2042.500244,1152.489136 2042.500244,1158.127075 2042.500244,1164.126587 
	C2044.710815,1164.863403 2046.845947,1165.574951 2049.168457,1166.349121 
	C2049.521484,1168.887329 2049.902832,1171.501465 2050.246826,1174.120605 
	C2054.399414,1205.735962 2065.746582,1234.330566 2085.291992,1259.718262 
	C2090.142822,1266.018799 2095.279297,1269.050537 2103.862549,1266.422363 
	C2118.280273,1242.841064 2133.041748,1218.697144 2147.803467,1194.553223 
	C2148.411377,1194.759033 2149.019531,1194.964844 2149.627441,1195.170776 
	C2149.627441,1202.695923 2149.627197,1210.221191 2149.627197,1217.746338 
	C2149.627197,1225.318481 2149.627441,1232.890625 2149.627441,1240.289673 
	C2162.780273,1242.150146 2212.971680,1241.694458 2218.895752,1240.047974 
	C2219.968262,1229.193604 2219.813965,1218.374146 2222.315186,1208.208130 
	C2226.558105,1190.964355 2234.723389,1176.008301 2253.925293,1170.380249 
	C2253.925293,1161.211060 2253.925293,1152.044067 2253.925293,1142.060059 
	C2250.241699,1142.060059 2246.986816,1142.073608 2243.732178,1142.057739 
	C2218.753662,1141.936768 2193.774902,1141.810181 2167.616699,1140.478882 
M2584.763184,1243.597290 
	C2587.294922,1234.394043 2591.362793,1225.302490 2592.042725,1215.964478 
	C2593.512207,1195.783447 2593.366943,1175.477539 2593.646729,1155.219482 
	C2593.853271,1140.265503 2593.687256,1125.306274 2593.687256,1109.807861 
	C2581.625977,1109.807861 2570.094238,1109.807861 2557.643799,1109.807861 
	C2557.643799,1113.237793 2557.643799,1116.485474 2557.643799,1119.733154 
	C2557.643799,1148.036133 2557.865723,1176.342163 2557.476074,1204.639771 
	C2557.386475,1211.132812 2556.034180,1217.905518 2553.792236,1224.009277 
	C2549.337158,1236.139648 2539.021973,1240.890625 2526.988525,1241.077637 
	C2515.755859,1241.252197 2506.375244,1236.863403 2500.924561,1226.097412 
	C2496.910400,1218.168457 2495.677734,1209.756714 2495.682129,1201.028687 
	C2495.696045,1174.057617 2495.687012,1147.086548 2495.687012,1120.115479 
	C2495.687012,1116.838013 2495.687012,1113.560669 2495.687012,1109.956177 
	C2482.249512,1109.956177 2469.483398,1109.956177 2456.312988,1109.956177 
	C2456.312988,1140.936279 2456.193359,1171.223022 2456.397461,1201.507568 
	C2456.448730,1209.088013 2456.902344,1216.779297 2458.272949,1224.216431 
	C2462.603027,1247.715698 2474.904053,1265.205933 2498.101074,1273.450439 
	C2508.204590,1277.041260 2518.839355,1277.857178 2529.550781,1277.312622 
	C2553.419434,1276.099243 2572.545898,1266.902466 2584.763184,1243.597290 
M2776.324707,1216.072876 
	C2776.861328,1219.320068 2777.221924,1222.607910 2777.962402,1225.807861 
	C2783.625732,1250.282593 2796.983154,1268.034790 2822.160156,1274.684326 
	C2837.507568,1278.737793 2853.059814,1278.627441 2868.384521,1274.121704 
	C2882.636963,1269.931030 2893.975586,1261.553955 2901.595215,1248.811401 
	C2908.864746,1236.654297 2912.455322,1223.345459 2912.389648,1209.031250 
	C2912.250488,1178.725708 2912.347412,1148.418945 2912.347412,1118.112671 
	C2912.347412,1115.482910 2912.347412,1112.853149 2912.347412,1109.788574 
	C2900.553955,1109.788574 2889.412109,1109.788574 2877.652588,1109.788574 
	C2877.652588,1113.268311 2877.652588,1116.233154 2877.652588,1119.197998 
	C2877.652588,1145.507812 2877.765381,1171.818604 2877.569824,1198.126953 
	C2877.523193,1204.385620 2876.893799,1210.720093 2875.750000,1216.874146 
	C2873.152588,1230.850464 2862.329834,1240.844482 2848.149902,1241.066772 
	C2831.806152,1241.322754 2822.976318,1235.137939 2818.464844,1221.181152 
	C2816.759033,1215.903931 2815.848145,1210.145264 2815.798096,1204.595093 
	C2815.539795,1175.956299 2815.690430,1147.313965 2815.659424,1118.672852 
	C2815.656250,1115.792969 2815.391113,1112.913208 2815.239014,1109.863281 
	C2801.812256,1109.863281 2789.011230,1109.863281 2776.321045,1109.863281 
	C2776.321045,1145.047119 2776.321045,1179.638672 2776.324707,1216.072876 
M2337.586182,1116.407471 
	C2327.070312,1123.131470 2318.195312,1131.517334 2311.571533,1142.166992 
	C2298.456543,1163.253784 2295.194580,1186.229492 2300.113037,1210.139771 
	C2313.567871,1275.547729 2386.873047,1294.134888 2431.358887,1262.432617 
	C2432.151367,1248.562378 2432.950684,1234.571777 2433.852539,1218.785156 
	C2429.796387,1221.668091 2427.450439,1223.355225 2425.084229,1225.013428 
	C2415.742432,1231.560425 2405.715332,1236.430176 2394.368896,1238.574341 
	C2369.910156,1243.196289 2348.322998,1231.291504 2341.125977,1207.813477 
	C2338.758301,1200.089844 2337.741211,1191.329956 2338.665039,1183.339722 
	C2341.139648,1161.940186 2353.776855,1144.423950 2377.874023,1140.612305 
	C2394.417236,1137.995605 2408.419189,1144.712524 2420.869385,1155.123901 
	C2423.053711,1156.950684 2425.137939,1158.897217 2428.853760,1162.195679 
	C2430.272217,1146.344727 2431.520020,1132.400024 2432.759766,1118.545776 
	C2401.061279,1100.217163 2370.219971,1098.450317 2337.586182,1116.407471 
M2725.642334,1235.342041 
	C2721.477539,1236.450806 2717.374023,1237.984009 2713.137451,1238.594727 
	C2694.777344,1241.241455 2678.701660,1237.092407 2667.292236,1221.407104 
	C2654.369141,1203.641846 2654.568848,1176.721802 2667.355469,1158.797119 
	C2681.585938,1138.848145 2708.061035,1134.152466 2730.395996,1147.925781 
	C2736.255859,1151.539429 2741.535645,1156.093628 2748.196533,1161.044434 
	C2749.692627,1146.399658 2751.107422,1132.554443 2752.470215,1119.215820 
	C2735.194580,1107.469482 2717.213867,1103.068604 2697.691162,1104.043457 
	C2673.920410,1105.230591 2654.165283,1114.583740 2638.330078,1132.360107 
	C2610.481445,1163.623047 2608.194580,1223.621948 2646.945801,1257.312744 
	C2674.362061,1281.148804 2716.638672,1283.183350 2745.632080,1266.220215 
	C2749.570801,1263.915649 2751.451660,1260.964600 2751.638916,1256.783081 
	C2752.182129,1244.647461 2752.559082,1232.504395 2753.005859,1220.233887 
	C2744.291260,1225.113647 2735.705322,1229.921387 2725.642334,1235.342041 
M3200.862549,1245.932129 
	C3195.526855,1234.851807 3190.194824,1223.769653 3184.855225,1212.691406 
	C3168.134033,1178.001221 3151.428955,1143.303345 3134.634033,1108.649048 
	C3133.746094,1106.817017 3132.084717,1105.359619 3129.916992,1102.641357 
	C3101.720459,1159.700317 3074.167480,1215.456909 3046.356201,1271.736328 
	C3060.540039,1271.736328 3073.463867,1271.736328 3086.563965,1271.736328 
	C3090.193604,1263.772827 3093.718506,1256.039185 3097.175781,1248.453979 
	C3118.898926,1248.453979 3140.135010,1248.453979 3161.296387,1248.453979 
	C3164.986572,1256.571045 3168.530273,1264.365845 3171.910400,1271.800293 
	C3186.017822,1271.800293 3199.268066,1271.800293 3213.615234,1271.800293 
	C3209.412598,1263.168579 3205.531494,1255.197388 3200.862549,1245.932129 
M2980.315186,1250.940430 
	C2980.315186,1257.818115 2980.315186,1264.695679 2980.315186,1271.549072 
	C2993.998779,1271.549072 3006.490967,1271.549072 3019.895996,1271.549072 
	C3019.895996,1228.904785 3019.895996,1186.806274 3019.895996,1143.761353 
	C3037.594727,1143.761353 3054.389404,1143.761353 3071.287598,1143.761353 
	C3071.287598,1131.933472 3071.287598,1121.072388 3071.287598,1110.005249 
	C3023.492188,1110.005249 2976.097412,1110.005249 2928.825684,1110.005249 
	C2928.825684,1121.622925 2928.825684,1132.491821 2928.825684,1144.266602 
	C2946.133789,1144.266602 2962.955811,1144.266602 2980.315186,1144.266602 
	C2980.315186,1179.773315 2980.315186,1214.363770 2980.315186,1250.940430 
M2164.182861,1091.654541 
	C2163.285645,1094.128052 2162.219482,1096.554932 2161.520020,1099.083252 
	C2158.010254,1111.772583 2163.275879,1124.014648 2174.805664,1130.204468 
	C2186.331543,1136.392212 2201.145264,1133.675415 2209.276123,1123.882812 
	C2219.005127,1112.165405 2217.483154,1093.401733 2206.081543,1084.498413 
	C2192.583008,1073.957642 2175.763672,1076.349609 2164.182861,1091.654541 
M2161.260010,1268.102295 
	C2180.726074,1268.102295 2200.192139,1268.102295 2219.615723,1268.102295 
	C2219.615723,1260.152710 2219.615723,1253.410767 2219.615723,1246.563477 
	C2195.784912,1246.563477 2172.693604,1246.563477 2148.962891,1246.563477 
	C2148.962891,1253.779175 2148.962891,1260.506714 2148.962891,1268.102295 
	C2152.847412,1268.102295 2156.093262,1268.102295 2161.260010,1268.102295 
M2524.359131,1063.186523 
	C2518.984375,1072.501709 2513.609863,1081.817017 2508.212646,1091.171875 
	C2518.887939,1094.217407 2526.333984,1091.487183 2531.801025,1082.651733 
	C2534.199219,1078.775635 2537.962891,1075.766113 2540.930420,1072.215820 
	C2546.101074,1066.029541 2551.135498,1059.729248 2557.086426,1052.421509 
	C2547.181885,1052.421509 2539.044678,1052.421509 2530.792480,1052.421509 
	C2528.906006,1055.699585 2527.093018,1058.850220 2524.359131,1063.186523 
z"/>
<path fill="#FDFDFD" opacity="1.000000" stroke="none" 
	d="
M2502.286133,498.124329 
	C2493.340820,515.205078 2484.287109,532.230103 2475.471191,549.377563 
	C2453.123779,592.845642 2430.906982,636.380737 2408.594238,679.866455 
	C2384.007080,727.783997 2359.378906,775.680542 2334.754639,823.579041 
	C2310.737549,870.296143 2286.697754,917.001587 2262.677002,963.716797 
	C2250.516602,987.365723 2238.381104,1011.027588 2226.213623,1034.672974 
	C2225.465088,1036.127930 2224.534180,1037.489380 2223.700195,1038.874268 
	C2192.904297,1038.874268 2162.388184,1038.874268 2131.747559,1038.874268 
	C2134.069824,1031.246704 2623.096924,253.133530 2635.066406,238.014709 
	C2803.001953,504.677032 2970.756592,771.051941 3138.596924,1037.562866 
	C3130.799072,1039.838501 3081.145020,1040.524170 3048.760498,1038.892578 
	C3044.059082,1030.081787 3038.988037,1020.832764 3034.147217,1011.464783 
	C2997.977539,941.469299 2961.885986,871.433350 2925.702148,801.445190 
	C2906.616943,764.530334 2887.387695,727.689819 2868.236572,690.809082 
	C2837.446289,631.514648 2806.645752,572.225586 2775.892334,512.911926 
	C2763.495117,489.001617 2751.211426,465.032318 2738.356201,439.845367 
	C2733.150391,429.752655 2728.464355,420.904388 2723.532715,411.405945 
	C2715.934570,396.424988 2708.582275,382.094208 2701.229980,367.763458 
	C2700.511475,368.128784 2699.793213,368.494080 2699.074707,368.859406 
	C2705.658936,384.510468 2713.385010,399.623383 2721.865967,415.152954 
	C2726.710205,425.139313 2731.411865,434.420502 2736.113281,443.701782 
	C2754.164307,480.740295 2772.156982,517.807495 2790.279541,554.811035 
	C2822.737549,621.085327 2855.296387,687.310120 2887.769531,753.577026 
	C2910.445312,799.851257 2933.056152,846.157410 2955.681396,892.456299 
	C2978.592529,939.339783 3001.487793,986.230957 3024.378418,1033.124512 
	C3025.080078,1034.561401 3025.650635,1036.062500 3026.303467,1037.582886 
	C3018.974609,1039.719116 2263.143799,1040.610107 2242.767822,1038.504272 
	C2244.638672,1034.076538 2246.195557,1029.827026 2248.178223,1025.786011 
	C2269.555420,982.214844 2291.026367,938.689758 2312.418213,895.125732 
	C2336.302002,846.486145 2360.146729,797.827332 2383.979248,749.162415 
	C2407.515381,701.102112 2431.012451,653.022400 2454.531738,604.953796 
	C2471.038330,571.217834 2487.554199,537.486389 2504.661621,502.571503 
	C2519.572266,472.381805 2533.911133,443.385254 2548.168945,414.348938 
	C2549.748047,411.133453 2550.863037,407.690308 2552.749756,403.920166 
	C2559.617188,390.333282 2565.928223,377.178925 2572.888184,363.783295 
	C2578.478760,352.998077 2583.420166,342.454102 2588.908691,331.536194 
	C2592.313965,324.780731 2595.171631,318.399200 2598.458008,311.756409 
	C2598.830322,310.736328 2598.773682,309.977509 2598.717041,309.218689 
	C2598.467041,310.134857 2598.216797,311.051025 2597.333496,312.234192 
	C2593.175293,319.060150 2589.650146,325.619141 2585.936523,332.849548 
	C2581.126709,343.541656 2576.505859,353.562347 2571.221436,363.837433 
	C2564.292969,376.469574 2558.028076,388.847321 2551.226074,401.689880 
	C2544.801025,413.687103 2538.859863,425.192627 2533.037598,436.758057 
	C2522.749268,457.194275 2512.532715,477.666901 2502.286133,498.124329 
M2637.875977,304.458649 
	C2637.283691,302.121674 2639.508545,298.635071 2634.409424,297.374115 
	C2634.409424,300.581940 2634.409424,303.342407 2633.889893,307.770294 
	C2634.323486,312.346130 2631.486084,317.653564 2637.707764,322.546112 
	C2638.428467,316.169922 2639.039062,311.183960 2637.875977,304.458649 
M2678.085205,327.379395 
	C2683.729980,338.573486 2689.372070,349.769043 2695.051270,360.945709 
	C2695.132812,361.106232 2695.701416,361.114655 2696.003906,361.039124 
	C2696.280518,360.970154 2696.504395,360.690674 2697.483887,359.950439 
	C2691.666504,348.793152 2685.769775,337.484467 2679.638672,325.071045 
	C2678.730957,324.417938 2677.822998,323.764832 2676.915283,323.111725 
	C2677.201416,324.059204 2677.487549,325.006714 2678.085205,327.379395 
M2600.043945,855.012268 
	C2597.267822,897.175354 2594.491699,939.338440 2591.706299,981.645630 
	C2619.012207,981.645630 2645.193359,981.645630 2671.983887,981.645630 
	C2671.333008,965.338562 2670.660156,949.500732 2670.087646,933.659363 
	C2669.835449,926.673340 2669.969971,919.670471 2669.611816,912.691589 
	C2668.608398,893.162720 2667.265869,873.650085 2666.384033,854.116333 
	C2665.484619,834.199768 2665.018311,814.263855 2664.245361,794.341003 
	C2664.134033,791.465637 2663.369385,788.615662 2662.950928,786.026489 
	C2643.167236,786.026489 2624.035889,786.026489 2604.505371,786.026489 
	C2603.071289,808.869751 2601.681885,830.999390 2600.043945,855.012268 
M2616.024414,635.077942 
	C2613.607666,658.556702 2611.190674,682.035461 2608.775391,705.500732 
	C2626.351074,705.500732 2643.158691,705.500732 2660.574463,705.500732 
	C2658.848877,672.907593 2657.156738,640.943054 2655.457031,608.834351 
	C2642.701172,608.834351 2630.657959,608.834351 2618.701416,608.834351 
	C2617.840820,617.476685 2617.054932,625.368713 2616.024414,635.077942 
M2651.676514,521.521912 
	C2650.948975,515.725830 2650.221191,509.929749 2649.448730,503.775848 
	C2640.079834,503.245270 2631.387939,502.452850 2622.714355,504.233734 
	C2621.059570,522.439819 2619.467041,539.965393 2617.875000,557.481628 
	C2630.584229,557.481628 2642.350586,557.481628 2654.677246,557.481628 
	C2653.639893,545.665588 2652.660645,534.513123 2651.676514,521.521912 
M2640.694336,469.358612 
	C2643.166260,469.117706 2645.638428,468.876831 2648.924316,468.556610 
	C2647.262207,454.456879 2645.690186,441.123322 2644.110840,427.725006 
	C2638.632812,427.725006 2633.773682,427.725006 2628.418945,427.725006 
	C2626.801270,441.664154 2625.236572,455.146606 2623.586914,469.358673 
	C2629.636719,469.358673 2634.238525,469.358673 2640.694336,469.358612 
M2642.354004,377.570862 
	C2642.003174,374.378418 2641.652100,371.185974 2641.275391,367.759338 
	C2637.836914,367.759338 2635.031250,367.759338 2631.246826,367.759338 
	C2630.616211,377.883850 2630.013428,387.563721 2629.388184,397.600677 
	C2634.243896,397.600677 2638.000977,397.600677 2642.358398,397.600677 
	C2642.358398,391.215485 2642.358398,385.322327 2642.354004,377.570862 
M2639.583252,334.991791 
	C2637.407227,334.413513 2635.231201,333.835236 2632.164062,333.020172 
	C2632.164062,340.839020 2632.164062,347.011688 2632.164062,353.978943 
	C2634.976807,353.838684 2637.624512,353.706635 2639.702148,353.603027 
	C2639.702148,347.233765 2639.702148,341.945923 2639.583252,334.991791 
M2633.950439,284.050293 
	C2634.540771,285.048615 2635.131104,286.046936 2635.721680,287.045135 
	C2636.407227,286.517609 2637.732910,285.905731 2637.676270,285.476135 
	C2637.270996,282.401154 2636.584229,279.363251 2635.987061,276.313568 
	C2635.300293,276.441437 2634.613770,276.569305 2633.927002,276.697174 
	C2633.927002,278.625153 2633.927002,280.553131 2633.950439,284.050293 
M2666.951660,303.379822 
	C2666.951660,303.379822 2667.202881,302.836365 2667.202881,302.836365 
	C2667.202881,302.836365 2666.667236,302.952148 2666.951660,303.379822 
M2674.951660,319.379822 
	C2674.951660,319.379822 2675.202881,318.836365 2675.202881,318.836365 
	C2675.202881,318.836365 2674.667236,318.952148 2674.951660,319.379822 
M2673.048340,314.620178 
	C2673.048340,314.620178 2672.797119,315.163635 2672.797119,315.163635 
	C2672.797119,315.163635 2673.332764,315.047852 2673.048340,314.620178 
M2671.048340,310.620178 
	C2671.048340,310.620178 2670.797119,311.163635 2670.797119,311.163635 
	C2670.797119,311.163635 2671.332764,311.047852 2671.048340,310.620178 
M2669.048340,306.620178 
	C2669.048340,306.620178 2668.797119,307.163635 2668.797119,307.163635 
	C2668.797119,307.163635 2669.332764,307.047852 2669.048340,306.620178 
z"/>
<path fill="#FFFFFF" opacity="1.000000" stroke="none" 
	d="
M2177.063232,827.074646 
	C2150.349609,873.807556 2114.562500,911.232788 2071.451660,941.822632 
	C2037.374756,966.002380 2000.746216,985.300476 1960.867676,998.130432 
	C1928.194580,1008.642151 1894.657837,1014.650757 1860.543701,1018.220642 
	C1825.408447,1021.897339 1790.216797,1022.178650 1754.971802,1022.118103 
	C1694.985107,1022.015015 1634.998169,1022.089661 1575.011353,1022.089661 
	C1571.433838,1022.089661 1567.856201,1022.089661 1563.996338,1022.089661 
	C1563.996338,766.970032 1563.996338,512.808716 1563.996338,257.925537 
	C1566.574829,257.710999 1569.081543,257.321350 1571.588501,257.320190 
	C1642.906128,257.287476 1714.231689,256.641937 1785.539185,257.490295 
	C1847.874023,258.231903 1909.321045,266.482025 1968.763062,286.140320 
	C2021.360474,303.534973 2069.111572,329.565765 2110.696289,366.685852 
	C2141.859863,394.503845 2166.910400,426.888123 2185.775391,463.966217 
	C2200.449707,492.808685 2210.208008,523.477478 2216.230957,555.280273 
	C2222.678223,589.322998 2224.980713,623.745483 2223.546875,658.293030 
	C2221.077148,717.798340 2207.186279,774.336914 2177.063232,827.074646 
M2036.338379,671.352478 
	C2040.245361,639.753479 2038.561157,608.502441 2030.812866,577.571655 
	C2020.985107,538.339539 2000.875244,505.602753 1970.153931,479.181183 
	C1940.462524,453.645386 1905.959229,438.436401 1868.137451,429.846527 
	C1837.174561,422.814392 1805.792847,420.684296 1774.141357,421.251526 
	C1764.547485,421.423431 1754.947876,421.278137 1744.849609,421.278137 
	C1744.849609,566.850220 1744.849609,711.566772 1744.849609,856.616455 
	C1746.570923,856.884766 1747.840454,857.271606 1749.103516,857.251526 
	C1771.378052,856.898193 1793.661377,856.776306 1815.923584,856.033081 
	C1845.003296,855.062317 1873.266724,849.311035 1900.662842,839.619324 
	C1935.415283,827.325134 1965.867432,808.254578 1990.295288,780.379639 
	C2017.200806,749.677185 2031.392944,713.371399 2036.338379,671.352478 
z"/>
<path fill="#FFFFFF" opacity="1.000000" stroke="none" 
	d="
M1113.663940,502.000153 
	C1113.663940,519.310852 1113.663940,535.621521 1113.663940,553.021851 
	C1197.272461,553.021851 1280.356812,553.021851 1363.883789,553.021851 
	C1363.883789,605.672607 1363.883789,657.231995 1363.883789,709.783936 
	C1280.951904,709.783936 1197.830933,709.783936 1114.189697,709.783936 
	C1114.189697,760.591736 1114.189697,810.410217 1114.189697,861.302979 
	C1213.195068,861.302979 1311.995483,861.302979 1411.226074,861.302979 
	C1411.226074,915.227295 1411.226074,968.080078 1411.226074,1021.511230 
	C1252.869385,1021.511230 1094.745117,1021.511230 936.143250,1021.511230 
	C936.143250,766.939575 936.143250,512.497070 936.143250,257.674866 
	C1092.807861,257.674866 1248.999756,257.674866 1405.762695,257.674866 
	C1405.762695,310.272614 1405.762695,362.732117 1405.762695,415.861755 
	C1308.739380,415.861755 1211.876343,415.861755 1113.663940,415.861755 
	C1113.663940,444.672302 1113.663940,472.836212 1113.663940,502.000153 
z"/>
<path fill="#FEFEFE" opacity="1.000000" stroke="none" 
	d="
M3474.172852,231.348541 
	C3518.015381,235.406158 3559.538818,244.962387 3599.296143,261.917236 
	C3622.906006,271.985718 3645.237061,284.319336 3666.820068,298.137909 
	C3671.329346,301.024994 3672.772705,304.399384 3672.207520,309.682892 
	C3668.124023,347.857788 3664.221680,386.052460 3660.385986,424.253326 
	C3658.033936,447.678436 3655.904053,471.125763 3653.661865,494.561920 
	C3653.577637,495.440216 3653.362549,496.305969 3652.980713,498.461426 
	C3645.809570,491.883911 3639.289551,485.976471 3632.848877,479.983978 
	C3601.677734,450.981934 3567.311768,426.945190 3526.976807,412.336945 
	C3506.916016,405.071289 3486.216064,400.974274 3464.882324,399.076508 
	C3433.634033,396.296783 3403.148682,399.450928 3373.478516,409.088257 
	C3328.864502,423.579773 3294.250488,451.527588 3267.702637,489.892548 
	C3243.883301,524.314209 3231.757568,562.690308 3227.532715,604.109253 
	C3223.474609,643.892944 3225.356201,683.252197 3238.002930,721.132141 
	C3265.122070,802.357361 3320.123047,853.195557 3405.589600,867.782532 
	C3461.264160,877.284790 3514.555176,866.723267 3565.861572,844.417114 
	C3604.574951,827.585815 3639.218018,804.306885 3671.639893,777.519958 
	C3672.594971,776.730835 3673.629150,776.037170 3676.179443,774.149475 
	C3676.275146,809.330505 3672.651855,842.825439 3671.422607,876.392212 
	C3670.197266,909.850159 3667.328857,943.247986 3665.083252,978.185730 
	C3658.235596,982.421265 3650.516113,987.504211 3642.514160,992.095337 
	C3589.858154,1022.306580 3533.191162,1039.124512 3472.691895,1044.245972 
	C3406.529541,1049.846680 3342.816162,1040.640381 3281.552734,1015.176697 
	C3240.343750,998.048401 3203.727783,973.687500 3170.561279,943.839111 
	C3132.972656,910.011230 3103.417725,870.289795 3081.454346,824.872375 
	C3061.363770,783.327148 3048.849854,739.593140 3043.546143,693.691956 
	C3040.715576,669.194397 3039.387207,644.648621 3040.473877,620.094910 
	C3043.004883,562.904175 3054.893555,507.851746 3079.165039,455.635162 
	C3096.701172,417.909027 3119.573486,383.844696 3147.830566,353.520966 
	C3175.433105,323.898895 3207.143066,299.325104 3242.636475,279.613495 
	C3289.146240,253.783707 3338.962402,238.300568 3391.623535,232.339508 
	C3416.689697,229.502106 3441.994629,228.473602 3467.249756,231.253525 
	C3469.225098,231.470963 3471.243652,231.295227 3474.172852,231.348541 
z"/>
<path fill="#FEFEFE" opacity="1.000000" stroke="none" 
	d="
M803.636963,401.323975 
	C802.521301,411.092438 801.263428,419.924316 800.373413,428.793121 
	C798.030640,452.139618 795.847656,475.502106 793.503540,499.872223 
	C791.482239,498.544098 789.761780,497.805664 788.559082,496.565216 
	C766.493713,473.806427 742.330872,453.678558 715.264526,437.049377 
	C682.193481,416.730957 646.461670,403.789307 607.858948,400.402832 
	C566.137146,396.742706 525.470276,402.113190 487.583435,421.194763 
	C441.562012,444.373260 408.881287,480.501251 387.775665,527.170471 
	C376.065369,553.064575 369.953491,580.396667 367.487183,608.781860 
	C364.387909,644.452332 366.178040,679.612183 375.688080,714.148865 
	C391.308105,770.874695 423.789917,815.109802 474.847534,844.954285 
	C505.614288,862.938171 539.355469,870.750793 574.724548,872.072388 
	C642.257202,874.595947 702.885254,853.383667 758.883850,817.376404 
	C778.636597,804.675293 797.328674,790.324463 817.124084,776.287842 
	C813.270752,843.845703 809.418640,911.383606 805.564697,978.952759 
	C780.919067,996.246582 754.675171,1009.650818 726.907837,1020.105042 
	C687.184753,1035.060669 646.211731,1043.604858 603.731934,1046.312012 
	C544.401245,1050.092896 487.138977,1041.864136 431.734222,1020.563599 
	C388.801910,1004.058105 350.272797,980.172485 315.756622,949.870544 
	C262.064819,902.734314 224.155273,845.050842 201.794739,777.244873 
	C190.008820,741.505249 182.771133,704.852112 181.653549,667.117737 
	C181.250671,653.515076 179.972366,639.885010 180.471863,626.318176 
	C182.615509,568.095459 194.134796,511.966705 218.597641,458.724457 
	C240.416458,411.236816 270.574188,369.866486 308.830353,334.452606 
	C332.835327,312.231079 359.424774,293.505493 388.390289,278.137054 
	C433.821014,254.032623 482.016571,239.171158 533.165894,233.875076 
	C601.049927,226.846252 667.016479,234.669556 730.649231,259.796936 
	C759.421936,271.158752 786.718567,285.388550 812.787842,303.828125 
	C809.756714,335.907074 806.709595,368.155640 803.636963,401.323975 
z"/>
<path fill="#F7F7F7" opacity="1.000000" stroke="none" 
	d="
M2168.206543,1141.082031 
	C2193.774902,1141.810181 2218.753662,1141.936768 2243.732178,1142.057739 
	C2246.986816,1142.073608 2250.241699,1142.060059 2253.925293,1142.060059 
	C2253.925293,1152.044067 2253.925293,1161.211060 2253.925293,1170.380249 
	C2234.723389,1176.008301 2226.558105,1190.964355 2222.315186,1208.208130 
	C2219.813965,1218.374146 2219.968262,1229.193604 2218.895752,1240.047974 
	C2212.971680,1241.694458 2162.780273,1242.150146 2149.627441,1240.289673 
	C2149.627441,1232.890625 2149.627197,1225.318481 2149.627197,1217.746338 
	C2149.627197,1210.221191 2149.627441,1202.695923 2149.627441,1195.170776 
	C2149.019531,1194.964844 2148.411377,1194.759033 2147.803467,1194.553223 
	C2133.041748,1218.697144 2118.280273,1242.841064 2103.862549,1266.422363 
	C2095.279297,1269.050537 2090.142822,1266.018799 2085.291992,1259.718262 
	C2065.746582,1234.330566 2054.399414,1205.735962 2050.246826,1174.120605 
	C2049.902832,1171.501465 2049.521484,1168.887329 2049.168457,1166.349121 
	C2046.845947,1165.574951 2044.710815,1164.863403 2042.500244,1164.126587 
	C2042.500244,1158.127075 2042.500244,1152.489136 2042.500244,1146.314941 
	C2045.290283,1145.672485 2048.073486,1145.031616 2049.544189,1144.692993 
	C2055.899170,1126.130005 2061.398682,1108.077881 2068.264648,1090.561523 
	C2075.334961,1072.524170 2086.064697,1056.526001 2098.806885,1041.840942 
	C2101.669922,1038.541504 2104.407227,1037.577637 2109.604736,1038.521118 
	C2128.641846,1071.979370 2148.129395,1106.229126 2168.206543,1141.082031 
M2067.319580,1128.392944 
	C2066.152100,1133.755249 2064.984619,1139.117432 2063.641846,1145.284546 
	C2087.874023,1145.284546 2110.839844,1145.879272 2133.753418,1145.044678 
	C2146.019287,1144.598145 2155.963867,1146.247314 2161.612549,1158.483398 
	C2162.540039,1160.491821 2164.473633,1162.035645 2165.849365,1163.682983 
	C2185.010742,1163.682983 2203.903076,1163.682983 2223.210938,1163.682983 
	C2223.210938,1161.173096 2223.210938,1159.065063 2223.210938,1156.095581 
	C2208.216797,1156.095581 2193.595215,1155.456543 2179.065918,1156.336914 
	C2170.451172,1156.859009 2166.045654,1153.631348 2161.962402,1146.516357 
	C2144.637451,1116.327271 2126.777100,1086.445435 2109.375000,1056.897461 
	C2102.670898,1054.594971 2098.951904,1057.273804 2095.618896,1062.273560 
	C2082.394775,1082.111206 2073.229492,1103.647705 2067.319580,1128.392944 
M2074.548340,1214.404053 
	C2079.316895,1223.487305 2083.695068,1232.804810 2088.967041,1241.585815 
	C2093.949463,1249.884644 2101.539795,1249.682373 2106.642822,1241.702393 
	C2117.362061,1224.940552 2128.084961,1208.180664 2138.711426,1191.360229 
	C2143.928223,1183.102783 2148.934082,1174.712158 2154.459229,1165.689453 
	C2123.628418,1165.689453 2094.147705,1165.689453 2063.853271,1165.689453 
	C2063.414551,1182.571411 2068.031494,1197.911255 2074.548340,1214.404053 
z"/>
<path fill="#FBFAFA" opacity="1.000000" stroke="none" 
	d="
M2584.435059,1244.272461 
	C2572.545898,1266.902466 2553.419434,1276.099243 2529.550781,1277.312622 
	C2518.839355,1277.857178 2508.204590,1277.041260 2498.101074,1273.450439 
	C2474.904053,1265.205933 2462.603027,1247.715698 2458.272949,1224.216431 
	C2456.902344,1216.779297 2456.448730,1209.088013 2456.397461,1201.507568 
	C2456.193359,1171.223022 2456.312988,1140.936279 2456.312988,1109.956177 
	C2469.483398,1109.956177 2482.249512,1109.956177 2495.687012,1109.956177 
	C2495.687012,1113.560669 2495.687012,1116.838013 2495.687012,1120.115479 
	C2495.687012,1147.086548 2495.696045,1174.057617 2495.682129,1201.028687 
	C2495.677734,1209.756714 2496.910400,1218.168457 2500.924561,1226.097412 
	C2506.375244,1236.863403 2515.755859,1241.252197 2526.988525,1241.077637 
	C2539.021973,1240.890625 2549.337158,1236.139648 2553.792236,1224.009277 
	C2556.034180,1217.905518 2557.386475,1211.132812 2557.476074,1204.639771 
	C2557.865723,1176.342163 2557.643799,1148.036133 2557.643799,1119.733154 
	C2557.643799,1116.485474 2557.643799,1113.237793 2557.643799,1109.807861 
	C2570.094238,1109.807861 2581.625977,1109.807861 2593.687256,1109.807861 
	C2593.687256,1125.306274 2593.853271,1140.265503 2593.646729,1155.219482 
	C2593.366943,1175.477539 2593.512207,1195.783447 2592.042725,1215.964478 
	C2591.362793,1225.302490 2587.294922,1234.394043 2584.435059,1244.272461 
z"/>
<path fill="#FCFCFC" opacity="1.000000" stroke="none" 
	d="
M2776.322754,1215.151611 
	C2776.321045,1179.638672 2776.321045,1145.047119 2776.321045,1109.863281 
	C2789.011230,1109.863281 2801.812256,1109.863281 2815.239014,1109.863281 
	C2815.391113,1112.913208 2815.656250,1115.792969 2815.659424,1118.672852 
	C2815.690430,1147.313965 2815.539795,1175.956299 2815.798096,1204.595093 
	C2815.848145,1210.145264 2816.759033,1215.903931 2818.464844,1221.181152 
	C2822.976318,1235.137939 2831.806152,1241.322754 2848.149902,1241.066772 
	C2862.329834,1240.844482 2873.152588,1230.850464 2875.750000,1216.874146 
	C2876.893799,1210.720093 2877.523193,1204.385620 2877.569824,1198.126953 
	C2877.765381,1171.818604 2877.652588,1145.507812 2877.652588,1119.197998 
	C2877.652588,1116.233154 2877.652588,1113.268311 2877.652588,1109.788574 
	C2889.412109,1109.788574 2900.553955,1109.788574 2912.347412,1109.788574 
	C2912.347412,1112.853149 2912.347412,1115.482910 2912.347412,1118.112671 
	C2912.347412,1148.418945 2912.250488,1178.725708 2912.389648,1209.031250 
	C2912.455322,1223.345459 2908.864746,1236.654297 2901.595215,1248.811401 
	C2893.975586,1261.553955 2882.636963,1269.931030 2868.384521,1274.121704 
	C2853.059814,1278.627441 2837.507568,1278.737793 2822.160156,1274.684326 
	C2796.983154,1268.034790 2783.625732,1250.282593 2777.962402,1225.807861 
	C2777.221924,1222.607910 2776.861328,1219.320068 2776.322754,1215.151611 
z"/>
<path fill="#FBFBFB" opacity="1.000000" stroke="none" 
	d="
M2338.205566,1116.018311 
	C2370.219971,1098.450317 2401.061279,1100.217163 2432.759766,1118.545776 
	C2431.520020,1132.400024 2430.272217,1146.344727 2428.853760,1162.195679 
	C2425.137939,1158.897217 2423.053711,1156.950684 2420.869385,1155.123901 
	C2408.419189,1144.712524 2394.417236,1137.995605 2377.874023,1140.612305 
	C2353.776855,1144.423950 2341.139648,1161.940186 2338.665039,1183.339722 
	C2337.741211,1191.329956 2338.758301,1200.089844 2341.125977,1207.813477 
	C2348.322998,1231.291504 2369.910156,1243.196289 2394.368896,1238.574341 
	C2405.715332,1236.430176 2415.742432,1231.560425 2425.084229,1225.013428 
	C2427.450439,1223.355225 2429.796387,1221.668091 2433.852539,1218.785156 
	C2432.950684,1234.571777 2432.151367,1248.562378 2431.358887,1262.432617 
	C2386.873047,1294.134888 2313.567871,1275.547729 2300.113037,1210.139771 
	C2295.194580,1186.229492 2298.456543,1163.253784 2311.571533,1142.166992 
	C2318.195312,1131.517334 2327.070312,1123.131470 2338.205566,1116.018311 
z"/>
<path fill="#FBFBFB" opacity="1.000000" stroke="none" 
	d="
M2726.380859,1235.035645 
	C2735.705322,1229.921387 2744.291260,1225.113647 2753.005859,1220.233887 
	C2752.559082,1232.504395 2752.182129,1244.647461 2751.638916,1256.783081 
	C2751.451660,1260.964600 2749.570801,1263.915649 2745.632080,1266.220215 
	C2716.638672,1283.183350 2674.362061,1281.148804 2646.945801,1257.312744 
	C2608.194580,1223.621948 2610.481445,1163.623047 2638.330078,1132.360107 
	C2654.165283,1114.583740 2673.920410,1105.230591 2697.691162,1104.043457 
	C2717.213867,1103.068604 2735.194580,1107.469482 2752.470215,1119.215820 
	C2751.107422,1132.554443 2749.692627,1146.399658 2748.196533,1161.044434 
	C2741.535645,1156.093628 2736.255859,1151.539429 2730.395996,1147.925781 
	C2708.061035,1134.152466 2681.585938,1138.848145 2667.355469,1158.797119 
	C2654.568848,1176.721802 2654.369141,1203.641846 2667.292236,1221.407104 
	C2678.701660,1237.092407 2694.777344,1241.241455 2713.137451,1238.594727 
	C2717.374023,1237.984009 2721.477539,1236.450806 2726.380859,1235.035645 
z"/>
<path fill="#FBFCFC" opacity="1.000000" stroke="none" 
	d="
M3201.256348,1246.579102 
	C3205.531494,1255.197388 3209.412598,1263.168579 3213.615234,1271.800293 
	C3199.268066,1271.800293 3186.017822,1271.800293 3171.910400,1271.800293 
	C3168.530273,1264.365845 3164.986572,1256.571045 3161.296387,1248.453979 
	C3140.135010,1248.453979 3118.898926,1248.453979 3097.175781,1248.453979 
	C3093.718506,1256.039185 3090.193604,1263.772827 3086.563965,1271.736328 
	C3073.463867,1271.736328 3060.540039,1271.736328 3046.356201,1271.736328 
	C3074.167480,1215.456909 3101.720459,1159.700317 3129.916992,1102.641357 
	C3132.084717,1105.359619 3133.746094,1106.817017 3134.634033,1108.649048 
	C3151.428955,1143.303345 3168.134033,1178.001221 3184.855225,1212.691406 
	C3190.194824,1223.769653 3195.526855,1234.851807 3201.256348,1246.579102 
M3138.644043,1194.235352 
	C3135.664795,1187.066040 3132.685791,1179.896851 3129.122803,1171.322388 
	C3121.880127,1188.367798 3115.327148,1203.790405 3108.526123,1219.796753 
	C3122.276123,1219.796753 3135.122314,1219.796753 3149.159424,1219.796753 
	C3145.710938,1211.328003 3142.512207,1203.472900 3138.644043,1194.235352 
z"/>
<path fill="#FBFBFB" opacity="1.000000" stroke="none" 
	d="
M2980.315186,1249.947388 
	C2980.315186,1214.363770 2980.315186,1179.773315 2980.315186,1144.266602 
	C2962.955811,1144.266602 2946.133789,1144.266602 2928.825684,1144.266602 
	C2928.825684,1132.491821 2928.825684,1121.622925 2928.825684,1110.005249 
	C2976.097412,1110.005249 3023.492188,1110.005249 3071.287598,1110.005249 
	C3071.287598,1121.072388 3071.287598,1131.933472 3071.287598,1143.761353 
	C3054.389404,1143.761353 3037.594727,1143.761353 3019.895996,1143.761353 
	C3019.895996,1186.806274 3019.895996,1228.904785 3019.895996,1271.549072 
	C3006.490967,1271.549072 2993.998779,1271.549072 2980.315186,1271.549072 
	C2980.315186,1264.695679 2980.315186,1257.818115 2980.315186,1249.947388 
z"/>
<path fill="#FBFAFA" opacity="1.000000" stroke="none" 
	d="
M2164.577148,1090.999756 
	C2175.763672,1076.349609 2192.583008,1073.957642 2206.081543,1084.498413 
	C2217.483154,1093.401733 2219.005127,1112.165405 2209.276123,1123.882812 
	C2201.145264,1133.675415 2186.331543,1136.392212 2174.805664,1130.204468 
	C2163.275879,1124.014648 2158.010254,1111.772583 2161.520020,1099.083252 
	C2162.219482,1096.554932 2163.285645,1094.128052 2164.577148,1090.999756 
z"/>
<path fill="#F8FDFD" opacity="1.000000" stroke="none" 
	d="
M2160.299316,1268.102295 
	C2156.093262,1268.102295 2152.847412,1268.102295 2148.962891,1268.102295 
	C2148.962891,1260.506714 2148.962891,1253.779175 2148.962891,1246.563477 
	C2172.693604,1246.563477 2195.784912,1246.563477 2219.615723,1246.563477 
	C2219.615723,1253.410767 2219.615723,1260.152710 2219.615723,1268.102295 
	C2200.192139,1268.102295 2180.726074,1268.102295 2160.299316,1268.102295 
z"/>
<path fill="#F7F7F7" opacity="1.000000" stroke="none" 
	d="
M2524.819336,1062.593750 
	C2527.093018,1058.850220 2528.906006,1055.699585 2530.792480,1052.421509 
	C2539.044678,1052.421509 2547.181885,1052.421509 2557.086426,1052.421509 
	C2551.135498,1059.729248 2546.101074,1066.029541 2540.930420,1072.215820 
	C2537.962891,1075.766113 2534.199219,1078.775635 2531.801025,1082.651733 
	C2526.333984,1091.487183 2518.887939,1094.217407 2508.212646,1091.171875 
	C2513.609863,1081.817017 2518.984375,1072.501709 2524.819336,1062.593750 
z"/>
<path fill="#373434" opacity="1.000000" stroke="none" 
	d="
M2502.770508,498.487305 
	C2512.532715,477.666901 2522.749268,457.194275 2533.037598,436.758057 
	C2538.859863,425.192627 2544.801025,413.687103 2551.273682,402.480103 
	C2551.969971,403.321259 2552.081543,403.837006 2552.193359,404.352753 
	C2550.863037,407.690308 2549.748047,411.133453 2548.168945,414.348938 
	C2533.911133,443.385254 2519.572266,472.381805 2504.743164,501.863037 
	C2503.904541,501.174103 2503.579590,500.012177 2502.770508,498.487305 
z"/>
<path fill="#373434" opacity="1.000000" stroke="none" 
	d="
M2736.253418,443.161499 
	C2731.411865,434.420502 2726.710205,425.139313 2722.088623,414.653839 
	C2722.705322,412.985077 2723.241943,412.520630 2723.778564,412.056152 
	C2728.464355,420.904388 2733.150391,429.752655 2737.909912,439.304260 
	C2737.453369,440.878845 2736.923096,441.750061 2736.253418,443.161499 
z"/>
<path fill="#020202" opacity="1.000000" stroke="none" 
	d="
M2600.168457,854.070679 
	C2601.681885,830.999390 2603.071289,808.869751 2604.505371,786.026489 
	C2624.035889,786.026489 2643.167236,786.026489 2662.950928,786.026489 
	C2663.369385,788.615662 2664.134033,791.465637 2664.245361,794.341003 
	C2665.018311,814.263855 2665.484619,834.199768 2666.384033,854.116333 
	C2667.265869,873.650085 2668.608398,893.162720 2669.611816,912.691589 
	C2669.969971,919.670471 2669.835449,926.673340 2670.087646,933.659363 
	C2670.660156,949.500732 2671.333008,965.338562 2671.983887,981.645630 
	C2645.193359,981.645630 2619.012207,981.645630 2591.706299,981.645630 
	C2594.491699,939.338440 2597.267822,897.175354 2600.168457,854.070679 
z"/>
<path fill="#040303" opacity="1.000000" stroke="none" 
	d="
M2616.146729,634.169312 
	C2617.054932,625.368713 2617.840820,617.476685 2618.701416,608.834351 
	C2630.657959,608.834351 2642.701172,608.834351 2655.457031,608.834351 
	C2657.156738,640.943054 2658.848877,672.907593 2660.574463,705.500732 
	C2643.158691,705.500732 2626.351074,705.500732 2608.775391,705.500732 
	C2611.190674,682.035461 2613.607666,658.556702 2616.146729,634.169312 
z"/>
<path fill="#030404" opacity="1.000000" stroke="none" 
	d="
M2651.679199,522.441284 
	C2652.660645,534.513123 2653.639893,545.665588 2654.677246,557.481628 
	C2642.350586,557.481628 2630.584229,557.481628 2617.875000,557.481628 
	C2619.467041,539.965393 2621.059570,522.439819 2622.714355,504.233734 
	C2631.387939,502.452850 2640.079834,503.245270 2649.448730,503.775848 
	C2650.221191,509.929749 2650.948975,515.725830 2651.679199,522.441284 
z"/>
<path fill="#090C0C" opacity="1.000000" stroke="none" 
	d="
M2639.767334,469.358643 
	C2634.238525,469.358673 2629.636719,469.358673 2623.586914,469.358673 
	C2625.236572,455.146606 2626.801270,441.664154 2628.418945,427.725006 
	C2633.773682,427.725006 2638.632812,427.725006 2644.110840,427.725006 
	C2645.690186,441.123322 2647.262207,454.456879 2648.924316,468.556610 
	C2645.638428,468.876831 2643.166260,469.117706 2639.767334,469.358643 
z"/>
<path fill="#070606" opacity="1.000000" stroke="none" 
	d="
M2642.356201,378.500000 
	C2642.358398,385.322327 2642.358398,391.215485 2642.358398,397.600677 
	C2638.000977,397.600677 2634.243896,397.600677 2629.388184,397.600677 
	C2630.013428,387.563721 2630.616211,377.883850 2631.246826,367.759338 
	C2635.031250,367.759338 2637.836914,367.759338 2641.275391,367.759338 
	C2641.652100,371.185974 2642.003174,374.378418 2642.356201,378.500000 
z"/>
<path fill="#515050" opacity="1.000000" stroke="none" 
	d="
M2723.532715,411.405975 
	C2723.241943,412.520630 2722.705322,412.985077 2721.945801,413.948669 
	C2713.385010,399.623383 2705.658936,384.510468 2699.074707,368.859406 
	C2699.793213,368.494080 2700.511475,368.128784 2701.229980,367.763458 
	C2708.582275,382.094208 2715.934570,396.424988 2723.532715,411.405975 
z"/>
<path fill="#090C0C" opacity="1.000000" stroke="none" 
	d="
M2639.642578,335.824951 
	C2639.702148,341.945923 2639.702148,347.233765 2639.702148,353.603027 
	C2637.624512,353.706635 2634.976807,353.838684 2632.164062,353.978943 
	C2632.164062,347.011688 2632.164062,340.839020 2632.164062,333.020172 
	C2635.231201,333.835236 2637.407227,334.413513 2639.642578,335.824951 
z"/>
<path fill="#515050" opacity="1.000000" stroke="none" 
	d="
M2552.749756,403.920166 
	C2552.081543,403.837006 2551.969971,403.321259 2551.811035,402.015320 
	C2558.028076,388.847321 2564.292969,376.469574 2571.217285,364.024414 
	C2571.876465,363.957031 2572.239014,364.024536 2572.239014,364.024536 
	C2565.928223,377.178925 2559.617188,390.333282 2552.749756,403.920166 
z"/>
<path fill="#898A8A" opacity="1.000000" stroke="none" 
	d="
M2679.873291,326.175842 
	C2685.769775,337.484467 2691.666504,348.793152 2697.483887,359.950439 
	C2696.504395,360.690674 2696.280518,360.970154 2696.003906,361.039124 
	C2695.701416,361.114655 2695.132812,361.106232 2695.051270,360.945709 
	C2689.372070,349.769043 2683.729980,338.573486 2678.458496,326.684265 
	C2679.179199,326.051361 2679.526367,326.113617 2679.873291,326.175842 
z"/>
<path fill="#898A8A" opacity="1.000000" stroke="none" 
	d="
M2588.361572,331.910126 
	C2583.420166,342.454102 2578.478760,352.998077 2572.888184,363.783264 
	C2572.239014,364.024536 2571.876465,363.957031 2571.880615,363.770020 
	C2576.505859,353.562347 2581.126709,343.541656 2586.491943,332.752899 
	C2587.611328,331.959930 2587.986328,331.935028 2588.361572,331.910126 
z"/>
<path fill="#090C0C" opacity="1.000000" stroke="none" 
	d="
M2637.437012,306.115326 
	C2639.039062,311.183960 2638.428467,316.169922 2637.707764,322.546112 
	C2631.486084,317.653564 2634.323486,312.346130 2634.653320,307.009033 
	C2636.090088,306.203613 2636.763428,306.159485 2637.437012,306.115326 
z"/>
<path fill="#D4D2D2" opacity="1.000000" stroke="none" 
	d="
M2588.908691,331.536194 
	C2587.986328,331.935028 2587.611328,331.959930 2586.680664,332.081482 
	C2589.650146,325.619141 2593.175293,319.060150 2597.348389,312.249054 
	C2597.996582,311.996918 2598.029297,312.017639 2598.029297,312.017639 
	C2595.171631,318.399200 2592.313965,324.780731 2588.908691,331.536194 
z"/>
<path fill="#515050" opacity="1.000000" stroke="none" 
	d="
M2633.938721,283.265686 
	C2633.927002,280.553131 2633.927002,278.625153 2633.927002,276.697174 
	C2634.613770,276.569305 2635.300293,276.441437 2635.987061,276.313568 
	C2636.584229,279.363251 2637.270996,282.401154 2637.676270,285.476135 
	C2637.732910,285.905731 2636.407227,286.517609 2635.721680,287.045197 
	C2635.131104,286.046936 2634.540771,285.048615 2633.938721,283.265686 
z"/>
<path fill="#373434" opacity="1.000000" stroke="none" 
	d="
M2637.656494,305.286987 
	C2636.763428,306.159485 2636.090088,306.203613 2634.913086,306.175323 
	C2634.409424,303.342407 2634.409424,300.581940 2634.409424,297.374115 
	C2639.508545,298.635071 2637.283691,302.121674 2637.656494,305.286987 
z"/>
<path fill="#D4D2D2" opacity="1.000000" stroke="none" 
	d="
M2679.755859,325.623444 
	C2679.526367,326.113617 2679.179199,326.051361 2678.302734,325.971680 
	C2677.487549,325.006714 2677.201416,324.059204 2676.915283,323.111725 
	C2677.822998,323.764832 2678.730957,324.417938 2679.755859,325.623444 
z"/>
<path fill="#D4D2D2" opacity="1.000000" stroke="none" 
	d="
M2597.981445,311.982056 
	C2598.216797,311.051025 2598.467041,310.134857 2598.717041,309.218689 
	C2598.773682,309.977509 2598.830322,310.736328 2598.458008,311.756409 
	C2598.029297,312.017639 2597.996582,311.996918 2597.981445,311.982056 
z"/>
<path fill="#D4D2D2" opacity="1.000000" stroke="none" 
	d="
M2666.809570,303.165985 
	C2666.667236,302.952148 2667.202881,302.836365 2667.202881,302.836365 
	C2667.202881,302.836365 2666.951660,303.379822 2666.809570,303.165985 
z"/>
<path fill="#D4D2D2" opacity="1.000000" stroke="none" 
	d="
M2674.809570,319.165985 
	C2674.667236,318.952148 2675.202881,318.836365 2675.202881,318.836365 
	C2675.202881,318.836365 2674.951660,319.379822 2674.809570,319.165985 
z"/>
<path fill="#D4D2D2" opacity="1.000000" stroke="none" 
	d="
M2673.190430,314.834015 
	C2673.332764,315.047852 2672.797119,315.163635 2672.797119,315.163635 
	C2672.797119,315.163635 2673.048340,314.620178 2673.190430,314.834015 
z"/>
<path fill="#D4D2D2" opacity="1.000000" stroke="none" 
	d="
M2671.190430,310.834015 
	C2671.332764,311.047852 2670.797119,311.163635 2670.797119,311.163635 
	C2670.797119,311.163635 2671.048340,310.620178 2671.190430,310.834015 
z"/>
<path fill="#D4D2D2" opacity="1.000000" stroke="none" 
	d="
M2669.190430,306.834015 
	C2669.332764,307.047852 2668.797119,307.163635 2668.797119,307.163635 
	C2668.797119,307.163635 2669.048340,306.620178 2669.190430,306.834015 
z"/>
<path fill="#010101" opacity="1.000000" stroke="none" 
	d="
M2036.316406,672.253052 
	C2031.392944,713.371399 2017.200806,749.677185 1990.295288,780.379639 
	C1965.867432,808.254578 1935.415283,827.325134 1900.662842,839.619324 
	C1873.266724,849.311035 1845.003296,855.062317 1815.923584,856.033081 
	C1793.661377,856.776306 1771.378052,856.898193 1749.103516,857.251526 
	C1747.840454,857.271606 1746.570923,856.884766 1744.849609,856.616455 
	C1744.849609,711.566772 1744.849609,566.850220 1744.849609,421.278137 
	C1754.947876,421.278137 1764.547485,421.423431 1774.141357,421.251526 
	C1805.792847,420.684296 1837.174561,422.814392 1868.137451,429.846527 
	C1905.959229,438.436401 1940.462524,453.645386 1970.153931,479.181183 
	C2000.875244,505.602753 2020.985107,538.339539 2030.812866,577.571655 
	C2038.561157,608.502441 2040.245361,639.753479 2036.316406,672.253052 
z"/>
<path fill="#070606" opacity="1.000000" stroke="none" 
	d="
M2067.512695,1127.590576 
	C2073.229492,1103.647705 2082.394775,1082.111206 2095.618896,1062.273560 
	C2098.951904,1057.273804 2102.670898,1054.594971 2109.375000,1056.897461 
	C2126.777100,1086.445435 2144.637451,1116.327271 2161.962402,1146.516357 
	C2166.045654,1153.631348 2170.451172,1156.859009 2179.065918,1156.336914 
	C2193.595215,1155.456543 2208.216797,1156.095581 2223.210938,1156.095581 
	C2223.210938,1159.065063 2223.210938,1161.173096 2223.210938,1163.682983 
	C2203.903076,1163.682983 2185.010742,1163.682983 2165.849365,1163.682983 
	C2164.473633,1162.035645 2162.540039,1160.491821 2161.612549,1158.483398 
	C2155.963867,1146.247314 2146.019287,1144.598145 2133.753418,1145.044678 
	C2110.839844,1145.879272 2087.874023,1145.284546 2063.641846,1145.284546 
	C2064.984619,1139.117432 2066.152100,1133.755249 2067.512695,1127.590576 
z"/>
<path fill="#030404" opacity="1.000000" stroke="none" 
	d="
M2074.250977,1213.698486 
	C2068.031494,1197.911255 2063.414551,1182.571411 2063.853271,1165.689453 
	C2094.147705,1165.689453 2123.628418,1165.689453 2154.459229,1165.689453 
	C2148.934082,1174.712158 2143.928223,1183.102783 2138.711426,1191.360229 
	C2128.084961,1208.180664 2117.362061,1224.940552 2106.642822,1241.702393 
	C2101.539795,1249.682373 2093.949463,1249.884644 2088.967041,1241.585815 
	C2083.695068,1232.804810 2079.316895,1223.487305 2074.250977,1213.698486 
z"/>
<path fill="#070606" opacity="1.000000" stroke="none" 
	d="
M3138.978760,1194.926636 
	C3142.512207,1203.472900 3145.710938,1211.328003 3149.159424,1219.796753 
	C3135.122314,1219.796753 3122.276123,1219.796753 3108.526123,1219.796753 
	C3115.327148,1203.790405 3121.880127,1188.367798 3129.122803,1171.322388 
	C3132.685791,1179.896851 3135.664795,1187.066040 3138.978760,1194.926636 
z"/>
</svg>